<svg id="Layer_1" data-name="Layer 1" xmlns="http://www.w3.org/2000/svg" viewBox="0 0 347.74 69.37"><defs><style>.cls-1{fill:#231f20;}.cls-2{fill:gray;}.cls-3{fill:#fff;}</style></defs><title>anperchiqilus</title><path class="cls-1" d="M90.5,84.92L87,73a5.14,5.14,0,0,0-1.21-2.44A4.59,4.59,0,0,0,83.21,70H65.91a3.39,3.39,0,0,0-2.67.86,16.41,16.41,0,0,0-1.9,4.64l-2.82,9.4a9.18,9.18,0,0,0-.39,2.56q0,3.91,3.79,3.9a22.08,22.08,0,0,0,2.77-.24,21.84,21.84,0,0,1,2.67-.24q4,0,4,4.27,0,4-4.37,4A13,13,0,0,1,64.84,99L60,98.2A31.88,31.88,0,0,0,55.51,98a37.56,37.56,0,0,0-4.76.2l-4.08.61a30.42,30.42,0,0,1-4,.41q-3.79,0-3.79-4,0-4.27,3.69-4.27a1.4,1.4,0,0,1,1.17.49H45a4.3,4.3,0,0,0,4-2.57,34.93,34.93,0,0,0,1.94-5.75L69,37.25q1.55-5.15,6.12-5.15t5.93,5.13L98.47,82q1.65,5.74,3,7.57a4.56,4.56,0,0,0,3.89,1.83,3.18,3.18,0,0,0,1.17-.16l2.72-.33q3.69,0,3.69,4,0,4.28-3.69,4.28a19.33,19.33,0,0,1-2.82-.27A66.06,66.06,0,0,0,97.3,98a110.05,110.05,0,0,0-11.66,1,28.8,28.8,0,0,1-3.11.24q-3.89,0-3.89-4.15t4.28-4.15a19.73,19.73,0,0,1,2.58.24,19.6,19.6,0,0,0,2.58.24q3.21,0,3.21-3.29A20.27,20.27,0,0,0,90.5,84.92ZM83.5,60L74.75,42.11,65.81,60a5.73,5.73,0,0,0-.19.85q0,1.1,1.46,1.1H82.53a1,1,0,0,0,1.17-1A4.9,4.9,0,0,0,83.5,60Z" transform="translate(-38.89 -32.1)"/><path class="cls-1" d="M142.17,37.9l26.09,53.16V52.74q0-7.42-.1-8.18-0.87-4.94-4.86-4.94a16.83,16.83,0,0,0-2.33.24,17,17,0,0,1-2.33.24,3,3,0,0,1-2.19-.91,2.89,2.89,0,0,1-.92-2.14q0-3.43,4.37-3.43a5.81,5.81,0,0,1,1.26.1l4.37,0.57a42.31,42.31,0,0,0,5.44.38,56.29,56.29,0,0,0,6.7-.52l3.4-.43a4.25,4.25,0,0,0,.68-0.09h0.68q4.18,0,4.18,3.28t-4,3.19H180.6q-3,0-3.86,1.23t-1.09,5.41V87.18q0,6.55-1.52,9.21t-5.22,2.66q-4.79,0-8.11-6.66L135.22,40.57V84.79q0,7.13,5,7.13,0.78,0,2.33-.14t2.33-.14q3.11,0,3.11,3,0,3.23-4.37,3.23H143a4.14,4.14,0,0,0-.68-0.1l-4-.57a44,44,0,0,0-6.22-.48,57.53,57.53,0,0,0-6.51.48l-4.76.57a4.12,4.12,0,0,0-.68.1h-0.78q-4.18,0-4.18-3.33,0-2.94,3.11-2.95c0.32,0,1.2.07,2.62,0.19a7.94,7.94,0,0,0,2,.29q5,0,5-7.13V46.75q0-7.13-5-7.13a14,14,0,0,0-1.93.19,19.77,19.77,0,0,1-2.7.29q-3.09,0-3.09-3.14,0-3.32,4.17-3.33,0.58,0,1.55.1,4.85,0.47,7.47.48,1.45,0,4.36-.29t4.37-.29q3,0,4,2Z" transform="translate(-38.89 -32.1)"/><path class="cls-2" d="M200.89,85.13V46.22Q200.89,39,196,39a17.21,17.21,0,0,0-2,.15,23.55,23.55,0,0,1-2.6.24q-3.09,0-3.09-3.21,0-3.4,4.27-3.4a11.82,11.82,0,0,1,1.45.1l4.75,0.58a48.4,48.4,0,0,0,5.82.29q2.43,0,5.82-.29,8-.68,12-0.68a51,51,0,0,1,10.67,1,16.65,16.65,0,0,1,10,6,17.79,17.79,0,0,1,3.64,11.27q0,9.13-6.27,14t-18.12,4.86H211.49a2.62,2.62,0,0,0-2,.53,4.42,4.42,0,0,0-.44,2.47v1.94q0,12.29.73,14.9T214,92.4a7.08,7.08,0,0,0,2-.29c1.43-.13,2.3-0.19,2.63-0.19q3,0,3,3.11,0,3.5-4.28,3.5l-1.36-.19-4.86-.68a47.08,47.08,0,0,0-6.12-.29,42.49,42.49,0,0,0-5.54.29l-5.64.78a2.58,2.58,0,0,0-.58.1h-0.68q-4.37,0-4.37-3.4a3.19,3.19,0,0,1,.88-2.28,2.84,2.84,0,0,1,2.14-.92,14.62,14.62,0,0,1,2.62.29,8,8,0,0,0,2,.19Q200.89,92.4,200.89,85.13Zm8.84-44q-0.68,1-.68,5.34V60.81q0,2.63,3.69,3h5.64a51.37,51.37,0,0,0,11.47-1.07q8.65-2,8.65-11.37Q238.5,39,222.76,39,211.1,39,209.74,41.09Z" transform="translate(-38.89 -32.1)"/><path class="cls-2" d="M262.89,49.09q0-7.19-5-7.19a7.92,7.92,0,0,0-2,.2,14.94,14.94,0,0,1-2.62.29,2.83,2.83,0,0,1-2.14-.92,3.2,3.2,0,0,1-.88-2.29q0-3.4,4.07-3.4l1.45,0.1q14.53,1,13.56,1h1l23.34-.68q0.68,0,5-.29c1-.06,2-0.1,2.81-0.1q5,0,5,4.47,0,0.78-.28,5Q306,48.31,306,50.93a47,47,0,0,0,.16,4.76,40,40,0,0,1,.33,4.18q0,3.69-3.45,3.7t-3.45-5.15V53.36q0-8.16-3.4-9.62-2.53-1.07-13-1.07A59.54,59.54,0,0,0,275,43q-4.18,1.07-4.18,5.83v9.72q0,3.89,1.73,4.47a9.31,9.31,0,0,0,2.3.19h3.93q6,0,6-4.18a24.22,24.22,0,0,0-.24-3,25.44,25.44,0,0,1-.24-3.3q0-3.89,3.45-3.89T291.27,53q0,0.78-.63,6a67.72,67.72,0,0,0-.54,7.87q0,1.95.39,6.9c0.06,0.52.23,1.65,0.49,3.4a26.78,26.78,0,0,1,.29,3.4q0,3.5-3.5,3.5T284.37,80a28.29,28.29,0,0,1,.24-3.11,28.68,28.68,0,0,0,.24-3.11q0-4.18-5.54-4.18h-4.37q-2.82,0-3.45,1t-0.63,4.18v6q0,1.56.1,4.18,0.1,3.21.1,4.28,0.1,3.89,1.56,4.86,1.06,0.68,5.05.68h13.22q5.73,0,7.87-1.7t2.14-6.37q0-1.46-.15-4.32T300.6,78q0-4.37,3.45-4.37,3.64,0,3.64,4.47,0,1.75-.15,5.34t-0.15,5.34c0,0.91,0,2.25.15,4s0.15,3.13.15,4q0,4.57-4.47,4.57c-0.71,0-1.84-.07-3.4-0.2q-1.16-.1-4.27-0.1,0.68,0-7.58-.19t-14.29-.19q-9.13,0-17.88.58a4.38,4.38,0,0,0-.87.1h-0.58q-4.09,0-4.08-3.5,0-3.11,3-3.11c0.32,0,1.2.07,2.62,0.19a7.75,7.75,0,0,0,2,.29q5,0,5-7.29v-39Z" transform="translate(-38.89 -32.1)"/><path class="cls-1" d="M365.91,64.14a33.61,33.61,0,0,1-7.19,2.33q5.68,1.07,7.85,4.26t2.16,10.56V86.9q0,7,4.42,7t4.52-8.28V79a12.71,12.71,0,0,1,.39-3.85,3,3,0,0,1,3-1.63q3.5,0,3.5,4.08c0,0.07,0,.78-0.1,2.14v7.09a11.73,11.73,0,0,0-.09,1.75q0,5.64-3.16,8.79t-8.79,3.16Q361,100.49,361,88.92V80.56q0-6.51-2.47-8.6t-10.21-2.09h-9q-3.1,0-3.1,3.79v7.48q0,7.19.2,8.16,0.87,4.86,4.86,4.86a13.22,13.22,0,0,0,2-.12c1.1-.12,1.95-0.18,2.53-0.18q3.11,0,3.11,3.21,0,3.4-4.18,3.4l-1.46-.2L338,99.61a42.54,42.54,0,0,0-5.34-.39,56.28,56.28,0,0,0-6.8.48l-4.66.58c-1,.13-1.52.2-1.46,0.2q-4.18,0-4.18-3.5,0-3.11,3-3.11c0.32,0,1.2.07,2.62,0.19a7.66,7.66,0,0,0,2,.29q5,0,5-7.29v-39q0-7.29-5-7.29a16.73,16.73,0,0,0-2.33.25,16.84,16.84,0,0,1-2.33.24,2.84,2.84,0,0,1-2.14-.92,3.07,3.07,0,0,1-.87-2.19q0-3.4,4.28-3.4c0.26,0,.71,0,1.36.1l5,0.49q1.94,0.19,4.86.19t6.71-.19l7.39-.39q3.69-.19,6.8-0.19,21.38,0,21.38,16.27Q373.29,60.65,365.91,64.14ZM339,63.36h9.13q8.16,0,12.25-2.33,5-2.82,5-9.43,0-11.08-15.21-11.08-8.09,0-11,1.21t-3,4.81V60.83a2.64,2.64,0,0,0,.58,2.09A4,4,0,0,0,339,63.36Z" transform="translate(-38.89 -32.1)"/><rect class="cls-3" x="11.58" y="27.12" width="336.16" height="15.19"/><path class="cls-1" d="M61.77,60.88a3.58,3.58,0,0,1,2.67,1.05V61.7A0.53,0.53,0,0,1,65,61a0.58,0.58,0,0,1,.57.72v0.1s0,0.19-.05.5a10.73,10.73,0,0,0-.05,1.12q0,0.08,0,.53l0.05,0.67a1.25,1.25,0,0,1,0,.23,0.64,0.64,0,0,1-.62.8,0.58,0.58,0,0,1-.65-0.67V65l0-.45c0-.15,0-0.28,0-0.37a1.94,1.94,0,0,0-.68-1.57A2.81,2.81,0,0,0,61.77,62a2.63,2.63,0,0,0-1.73.53A1.78,1.78,0,0,0,59.4,64a1.65,1.65,0,0,0,1,1.55,7.25,7.25,0,0,0,1.87.48,6.57,6.57,0,0,1,2.72.87A2.72,2.72,0,0,1,66,69.21a3.23,3.23,0,0,1-1.13,2.55,4.24,4.24,0,0,1-2.91,1,4.36,4.36,0,0,1-3.15-1.2V71.8a1.85,1.85,0,0,1,.07.35,0.54,0.54,0,0,1-.61.61,0.61,0.61,0,0,1-.67-0.7,0.17,0.17,0,0,1,.05-0.13l0.07-.87q0.06-.65.06-0.84a8,8,0,0,0-.09-1,8.33,8.33,0,0,1-.09-1,0.62,0.62,0,0,1,.63-0.75,0.63,0.63,0,0,1,.65.76V68.9a2.58,2.58,0,0,0,.8,2,3.07,3.07,0,0,0,2.16.74,3.13,3.13,0,0,0,2-.6,2,2,0,0,0,.75-1.64q0-1.59-2-1.94l-1-.17a10.68,10.68,0,0,1-2.2-.59,2.54,2.54,0,0,1-1.14-1,2.79,2.79,0,0,1-.43-1.53A3,3,0,0,1,59,61.8,4.11,4.11,0,0,1,61.77,60.88Z" transform="translate(-38.89 -32.1)"/><path class="cls-1" d="M73.23,63.47c0-.82-0.28-1.23-0.85-1.23a1.46,1.46,0,0,0-.35,0,2.36,2.36,0,0,1-.45.05,0.48,0.48,0,0,1-.37-0.16,0.55,0.55,0,0,1-.15-0.39,0.57,0.57,0,0,1,.7-0.58l0.25,0,2.33,0.17H74.5l4-.12,0.87,0,0.48,0a0.72,0.72,0,0,1,.87.77c0,0.09,0,.38,0,0.85s0,0.69,0,1,0,0.66,0,.82a6.92,6.92,0,0,1,.06.72,0.54,0.54,0,0,1-.59.63c-0.4,0-.59-0.29-0.59-0.88V64.21q0-1.4-.59-1.66a7.87,7.87,0,0,0-2.24-.18,10.28,10.28,0,0,0-1.4.05,0.91,0.91,0,0,0-.72,1v1.67a0.73,0.73,0,0,0,.29.77,1.65,1.65,0,0,0,.39,0H76c0.69,0,1-.24,1-0.72a4.45,4.45,0,0,0,0-.52,4.25,4.25,0,0,1,0-.57,0.56,0.56,0,0,1,.59-0.67,0.59,0.59,0,0,1,.59.72c0,0.09,0,.43-0.11,1a11.41,11.41,0,0,0-.09,1.35q0,0.33.07,1.19c0,0.09,0,.28.08,0.58a4.63,4.63,0,0,1,.05.59,0.53,0.53,0,0,1-.6.6,0.57,0.57,0,0,1-.58-0.7,4.69,4.69,0,0,1,0-.53,5.32,5.32,0,0,0,0-.54c0-.48-0.32-0.72-1-0.72H75.3a0.71,0.71,0,0,0-.59.17,1.52,1.52,0,0,0-.11.72v1c0,0.18,0,.42,0,0.72s0,0.61,0,.73a1,1,0,0,0,.27.83,2,2,0,0,0,.87.12H78A2.25,2.25,0,0,0,79.39,71a1.33,1.33,0,0,0,.37-1.09c0-.17,0-0.41,0-0.74s0-.58,0-0.75a0.6,0.6,0,0,1,.59-0.75,0.63,0.63,0,0,1,.63.77q0,0.3,0,.92c0,0.41,0,.72,0,0.92s0,0.39,0,.69,0,0.54,0,.69a0.69,0.69,0,0,1-.77.78l-0.58,0-0.74,0-1.3,0-2.45,0q-1.57,0-3.07.1l-0.15,0h-0.1a0.58,0.58,0,0,1-.7-0.6,0.46,0.46,0,0,1,.52-0.53l0.45,0a1.28,1.28,0,0,0,.35.05q0.85,0,.85-1.25v-6.7Z" transform="translate(-38.89 -32.1)"/><path class="cls-1" d="M94.67,66.22a5.71,5.71,0,0,1-1.24.4,2,2,0,0,1,1.35.73,3.36,3.36,0,0,1,.37,1.82v1c0,0.8.25,1.2,0.76,1.2s0.78-.48.78-1.42V68.77a2.22,2.22,0,0,1,.07-0.66,0.52,0.52,0,0,1,.52-0.28,0.58,0.58,0,0,1,.6.7s0,0.13,0,.37v1.22a2,2,0,0,0,0,.3,1.89,1.89,0,0,1-2.06,2.05,1.75,1.75,0,0,1-2-2V69a1.93,1.93,0,0,0-.42-1.48,2.94,2.94,0,0,0-1.76-.36H90.09a0.53,0.53,0,0,0-.53.65v1.29q0,1.24,0,1.4a0.83,0.83,0,0,0,.84.84l0.35,0,0.43,0a0.48,0.48,0,0,1,.54.55,0.58,0.58,0,0,1-.72.58l-0.25,0-0.9-.12A7.81,7.81,0,0,0,89,72.25a9.61,9.61,0,0,0-1.17.08l-0.8.1-0.25,0a0.59,0.59,0,0,1-.72-0.6,0.46,0.46,0,0,1,.52-0.53l0.45,0a1.25,1.25,0,0,0,.35.05q0.85,0,.85-1.25v-6.7q0-1.25-.85-1.25a2.73,2.73,0,0,0-.4,0l-0.4,0a0.49,0.49,0,0,1-.37-0.16A0.54,0.54,0,0,1,86,61.77a0.59,0.59,0,0,1,.74-0.58l0.23,0,0.85,0.08c0.22,0,.5,0,0.84,0l1.15,0,1.27-.07q0.63,0,1.17,0,3.68,0,3.67,2.8A2.25,2.25,0,0,1,94.67,66.22ZM90,66.09h1.57a4.36,4.36,0,0,0,2.1-.4,1.71,1.71,0,0,0,.85-1.62q0-1.9-2.61-1.9a5.55,5.55,0,0,0-1.88.21,0.83,0.83,0,0,0-.51.83v2.45a0.46,0.46,0,0,0,.1.36A0.7,0.7,0,0,0,90,66.09Z" transform="translate(-38.89 -32.1)"/><path class="cls-1" d="M105.65,63.9L108,71l2.24-7a4.47,4.47,0,0,0,.25-1.13,0.58,0.58,0,0,0-.67-0.63l-0.37,0a2.31,2.31,0,0,1-.37,0,0.55,0.55,0,0,1-.65-0.58,0.53,0.53,0,0,1,.63-0.57,8.12,8.12,0,0,1,1.06.1,8.38,8.38,0,0,0,1.08.1,9.22,9.22,0,0,0,1.48-.15,3.11,3.11,0,0,1,.53-0.05,0.53,0.53,0,0,1,.62.58,0.53,0.53,0,0,1-.62.57l-0.07,0-0.38,0H112.7a0.53,0.53,0,0,0-.46.28,6.89,6.89,0,0,0-.49,1.19l-2.74,8a1.06,1.06,0,0,1-1.05.82,1.08,1.08,0,0,1-1.09-.82l-3-8.39a3.31,3.31,0,0,0-.35-0.78,0.9,0.9,0,0,0-.74-0.28h-0.63a0.54,0.54,0,0,1-.65-0.57,0.56,0.56,0,0,1,.67-0.58,2.46,2.46,0,0,1,.45,0,9.28,9.28,0,0,0,1.65.17,10.25,10.25,0,0,0,1.24-.11,10,10,0,0,1,1.22-.11,0.52,0.52,0,0,1,.62.55,0.55,0.55,0,0,1-.63.6h-0.6c-0.49,0-.73.15-0.73,0.46a1.67,1.67,0,0,0,.08.5Z" transform="translate(-38.89 -32.1)"/><path class="cls-1" d="M120,63.47c0-.82-0.28-1.23-0.85-1.23a1.46,1.46,0,0,0-.35,0,2.36,2.36,0,0,1-.45.05,0.48,0.48,0,0,1-.37-0.16,0.55,0.55,0,0,1-.15-0.39,0.59,0.59,0,0,1,.73-0.58l0.23,0,0.89,0.12a7.61,7.61,0,0,0,1,.07,8.71,8.71,0,0,0,1.13-.08l0.75-.1,0.23,0a0.59,0.59,0,0,1,.74.58,0.55,0.55,0,0,1-.15.39,0.48,0.48,0,0,1-.37.16,2.58,2.58,0,0,1-.45-0.05,1.42,1.42,0,0,0-.35,0c-0.57,0-.85.41-0.85,1.23v6.7c0,0.83.28,1.25,0.85,1.25l0.35,0a3.27,3.27,0,0,1,.45,0,0.46,0.46,0,0,1,.52.53,0.6,0.6,0,0,1-.74.6H122.7l-0.12,0-0.87-.13a6.37,6.37,0,0,0-.92-0.07,8.43,8.43,0,0,0-1.25.08l-0.77.12-0.12,0h-0.13a0.59,0.59,0,0,1-.72-0.6,0.46,0.46,0,0,1,.52-0.53l0.45,0a1.28,1.28,0,0,0,.35.05c0.57,0,.85-0.42.85-1.25v-6.7Z" transform="translate(-38.89 -32.1)"/><path class="cls-1" d="M133.25,60.88a3.73,3.73,0,0,1,3,1.42V61.92a0.67,0.67,0,0,1,0-.12c0-.25,0-0.36,0-0.34a0.49,0.49,0,0,1,.52-0.58,0.56,0.56,0,0,1,.55.7c0,0.09,0,.36,0,0.8s-0.1.94-.1,1.15a7.18,7.18,0,0,0,.06.92l0.07,0.63v0.17a0.61,0.61,0,0,1-.6.75A0.59,0.59,0,0,1,136,65.3V64.7a2.45,2.45,0,0,0-.75-1.94,2.85,2.85,0,0,0-2-.75,3,3,0,0,0-2.58,1.27,5.81,5.81,0,0,0-.93,3.5,5.83,5.83,0,0,0,1,3.57,3.42,3.42,0,0,0,4.36.83,2.47,2.47,0,0,0,1-1.19,3.44,3.44,0,0,0,.2-1.3,0.63,0.63,0,0,1,.63-0.77,0.64,0.64,0,0,1,.69.77,3.78,3.78,0,0,1-1.24,2.92,4.52,4.52,0,0,1-3.19,1.14,4.48,4.48,0,0,1-3.6-1.59,6.33,6.33,0,0,1-1.34-4.23,6.68,6.68,0,0,1,1.38-4.39A4.47,4.47,0,0,1,133.25,60.88Z" transform="translate(-38.89 -32.1)"/><path class="cls-1" d="M144.47,63.47c0-.82-0.29-1.23-0.85-1.23a1.42,1.42,0,0,0-.35,0,2.38,2.38,0,0,1-.45.05,0.47,0.47,0,0,1-.37-0.16,0.54,0.54,0,0,1-.15-0.39,0.59,0.59,0,0,1,.73-0.58l0.23,0,0.89,0.12a7.57,7.57,0,0,0,1,.07,8.72,8.72,0,0,0,1.14-.08l0.75-.1,0.23,0a0.59,0.59,0,0,1,.73.58,0.55,0.55,0,0,1-.15.39,0.48,0.48,0,0,1-.37.16,2.56,2.56,0,0,1-.45-0.05,1.44,1.44,0,0,0-.35,0c-0.57,0-.85.41-0.85,1.23v6.7q0,1.25.85,1.25l0.35,0a3.27,3.27,0,0,1,.45,0,0.46,0.46,0,0,1,.52.53,0.6,0.6,0,0,1-.73.6h-0.12l-0.12,0-0.87-.13a6.42,6.42,0,0,0-.92-0.07,8.46,8.46,0,0,0-1.25.08l-0.77.12-0.12,0H143a0.59,0.59,0,0,1-.72-0.6,0.46,0.46,0,0,1,.52-0.53l0.45,0a1.25,1.25,0,0,0,.35.05c0.57,0,.85-0.42.85-1.25v-6.7Z" transform="translate(-38.89 -32.1)"/><path class="cls-1" d="M157.54,72.75a4.28,4.28,0,0,1-3.51-1.6,6.71,6.71,0,0,1-1.3-4.34,6.65,6.65,0,0,1,1.3-4.35,4.4,4.4,0,0,1,3.59-1.58,4.32,4.32,0,0,1,3.48,1.54,6.25,6.25,0,0,1,1.29,4.16,7.12,7.12,0,0,1-1.31,4.51A4.28,4.28,0,0,1,157.54,72.75Zm0-10.67a2.88,2.88,0,0,0-2.49,1.24,5.88,5.88,0,0,0-.89,3.47,6,6,0,0,0,.89,3.51,3,3,0,0,0,4.93,0,6,6,0,0,0,.91-3.51,5.85,5.85,0,0,0-.87-3.45A2.87,2.87,0,0,0,157.58,62.08Z" transform="translate(-38.89 -32.1)"/><path class="cls-1" d="M171.9,60.88a3.59,3.59,0,0,1,2.67,1.05V61.7a0.53,0.53,0,0,1,.52-0.65,0.58,0.58,0,0,1,.57.72v0.1s0,0.19,0,.5a10.21,10.21,0,0,0-.05,1.12q0,0.08,0,.53l0.05,0.67a1.55,1.55,0,0,1,0,.23c0,0.54-.2.8-0.62,0.8a0.58,0.58,0,0,1-.65-0.67V65l0-.45c0-.15,0-0.28,0-0.37a1.93,1.93,0,0,0-.68-1.57A2.8,2.8,0,0,0,171.9,62a2.63,2.63,0,0,0-1.73.53,1.77,1.77,0,0,0-.64,1.44,1.65,1.65,0,0,0,1,1.55,7.25,7.25,0,0,0,1.87.48,6.55,6.55,0,0,1,2.72.87,2.71,2.71,0,0,1,1.1,2.32,3.23,3.23,0,0,1-1.12,2.55,4.25,4.25,0,0,1-2.91,1,4.35,4.35,0,0,1-3.15-1.2V71.8a1.88,1.88,0,0,1,.07.35,0.54,0.54,0,0,1-.62.61,0.61,0.61,0,0,1-.67-0.7,0.18,0.18,0,0,1,.05-0.13l0.08-.87c0-.44.06-0.71,0.06-0.84a7.93,7.93,0,0,0-.09-1,8,8,0,0,1-.09-1,0.62,0.62,0,0,1,.63-0.75,0.63,0.63,0,0,1,.65.76V68.9a2.58,2.58,0,0,0,.8,2,3.06,3.06,0,0,0,2.16.74,3.12,3.12,0,0,0,2-.6,2,2,0,0,0,.75-1.64q0-1.59-2-1.94l-1-.17a10.7,10.7,0,0,1-2.21-.59,2.54,2.54,0,0,1-1.14-1,2.81,2.81,0,0,1-.43-1.53,3,3,0,0,1,1.07-2.39A4.11,4.11,0,0,1,171.9,60.88Z" transform="translate(-38.89 -32.1)"/></svg>